<svg xmlns="http://www.w3.org/2000/svg" width="512" height="512" viewBox="0 0 216 216">
    <rect width="216" height="216" rx="40" fill="#1977d4"/>
    <path d="M108,45C65.3,45,30.6,79.7,30.6,122.4c0,34.1,22.1,63.1,52.8,73.4c3.9,0.7,5.3-1.7,5.3-3.7s-0.1-13.6-0.1-26.7
    c-21.5,4.7-26-10.4-26-10.4c-3.5-9-8.6-11.4-8.6-11.4c-7-4.8,0.5-4.7,0.5-4.7c7.7,0.5,11.8,7.9,11.8,7.9c6.9,11.8,18.1,8.4,22.5,6.4
    c0.7-5,2.7-8.4,4.9-10.4c-17.1-1.9-35.1-8.5-35.1-37.9c0-8.4,3-15.2,7.9-20.6c-0.8-1.9-3.4-9.7,0.8-20.3c0,0,6.4-2.1,21,7.8
    c6.1-1.7,12.7-2.6,19.3-2.6c6.6,0,13.2,0.9,19.3,2.6c14.6-9.9,21-7.8,21-7.8c4.2,10.6,1.6,18.4,0.8,20.3c4.9,5.3,7.9,12.2,7.9,20.6
    c0,29.4-18,35.9-35.2,37.8c2.8,2.4,5.3,7.1,5.3,14.4c0,10.4-0.1,18.8-0.1,21.4c0,2.1,1.4,4.5,5.4,3.7c30.6-10.3,52.7-39.2,52.7-73.3
    C185.4,79.7,150.7,45,108,45z" fill="#fff"/>
    <path d="M182.5,130.5c0,3.6-2.9,6.5-6.5,6.5s-6.5-2.9-6.5-6.5c0-2.4,1.3-4.5,3.3-5.6v-14.8c-6.1-2.4-10.4-8.4-10.4-15.3
    c0-9.1,7.4-16.5,16.5-16.5s16.5,7.4,16.5,16.5c0,6.9-4.3,12.9-10.4,15.3v14.8C181.2,126,182.5,128.1,182.5,130.5z M176,120.5v-11
    c-2.7,2.1-6.1,3.3-9.8,3.3c-8.2,0-14.8-6.6-14.8-14.8c0-8.2,6.6-14.8,14.8-14.8s14.8,6.6,14.8,14.8c0,3.7-1.3,7.2-3.3,9.8v11
    C180.3,117.5,178.4,119.2,176,120.5z" fill="#fff"/>
</svg>